PathFileType	4	(X/Y/Z)	69_2_11_p0_0-387_filt_butterworth.trc
DataRate	CameraRate	NumFrames	NumMarkers	Units	OrigDataRate	OrigDataStartFrame	OrigNumFrames
54.0	54.0	6	27	m	54.0	96	387
Frame#	Time	RHip			RKnee			RAnkle			RBigToe			RSmallToe			RHeel			LHip			LKnee			LAnkle			LBigToe			LSmallToe			LHeel			Neck			Head			Nose			RShoulder			RElbow			RWrist			RThumb			RIndex			RPinky			LShoulder			LElbow			LWrist			LThumb			LIndex			LPinky			
		X1	Y1	Z1	X2	Y2	Z2	X3	Y3	Z3	X4	Y4	Z4	X5	Y5	Z5	X6	Y6	Z6	X7	Y7	Z7	X8	Y8	Z8	X9	Y9	Z9	X10	Y10	Z10	X11	Y11	Z11	X12	Y12	Z12	X13	Y13	Z13	X14	Y14	Z14	X15	Y15	Z15	X16	Y16	Z16	X17	Y17	Z17	X18	Y18	Z18	X19	Y19	Z19	X20	Y20	Z20	X21	Y21	Z21	X22	Y22	Z22	X23	Y23	Z23	X24	Y24	Z24	X25	Y25	Z25	X26	Y26	Z26	X27	Y27	Z27	
96	1.7777777777777777	0.2957628536965816	0.48142456356170077	0.4704970800073952	0.24777231646082165	0.5491461368830022	0.920886372320201	0.22737950885173114	0.5556583218923483	1.3052332509217144	0.2629293134322923	0.43594432284265666	1.3333384431117206	0.3218498367820868	0.460161569969422	1.3220487626695037	0.17294852486679932	0.6614086801022634	1.3918039958894397	0.12846338767531348	0.44336921973167887	0.46976263269334373	0.052860098262937194	0.5135528944990414	0.9157362127697144	0.02969643848931023	0.5781843140444411	1.3429701422865827	0.11846571759817255	0.36422480443141514	1.2972010169795603	0.057296727784503426	0.4030368703716667	1.3146901920831655	0.0350316269677786	0.6055666584656515	1.3859572835472282	0.2172769462343925	0.5386270057930845	-0.043044076067343756	0.23400849458714554	0.5124434696229737	-0.2574069389029778	0.24573300503549828	0.4600977045147455	-0.1511993349469613	0.33066720230621	0.5367765482166181	0.021765925460733148	0.49175302822737715	0.41935331859301506	-0.019757963343773523	0.40187442605967466	0.3378802922976353	-0.15962734158895572	0.32181804887802856	0.3012554442008005	-0.25004301620158653	0.3238864219999124	0.28969223730611593	-0.2715540380687395	0.3415176814548609	0.2826353517322769	-0.27165484709173565	0.08097845381513818	0.5079674480068118	0.019148146844070436	0.05928771329325902	0.27548559705731246	-0.050542804948233024	0.15034024615415725	0.30518822769488807	-0.20191783400469557	0.22995804600264397	0.29664514038274037	-0.24889569701835262	0.2268988078416586	0.3351790852111646	-0.2790150900925276	0.21216092188110763	0.27285743999037865	-0.2894486192960605
97	1.7962962962962965	0.29671250330050347	0.4784755250697636	0.4731336867115777	0.24753230141329183	0.5492977908436567	0.9216740391995294	0.22740891155290857	0.5556310481962612	1.3052121148515754	0.26313314401095245	0.4322418398728526	1.331077467266931	0.32182303698984976	0.4595521683042358	1.322079857867204	0.172958607537451	0.6614510336691561	1.391895105336594	0.12820083065915316	0.4436922767820371	0.47527752629737396	0.05198522487147503	0.5177945451909887	0.9198093095432384	0.029698599510682572	0.5782071231332672	1.3427862849590946	0.11732937874237934	0.36240523124836804	1.2956529469663096	0.05724854711381332	0.40305365812382293	1.3146858594221105	0.03496719443016664	0.605721772206585	1.3857850922391624	0.21749240319865243	0.5387467581036455	-0.042603046318123984	0.23381386534086177	0.5087860268181439	-0.2581845883647262	0.2466914765830787	0.4607008703435765	-0.1510738102947922	0.3308168774404415	0.536164050956768	0.023681164572323117	0.48672108919686474	0.42149597472441597	-0.04221671485910727	0.3913841648795035	0.3492651135860959	-0.17995871554485512	0.3152853090807959	0.307871204701754	-0.2649105612288264	0.313542710359272	0.29127614953901537	-0.29771660628743557	0.3239054689008076	0.2908553893023089	-0.2993576139852374	0.08083695928067451	0.5082047298800534	0.02084108316045968	0.06469202033112748	0.27532301740093557	-0.07531257151609115	0.1580407023705792	0.3031485205456831	-0.2252298096536573	0.23479236746323232	0.3069515558373753	-0.26821817392006364	0.23545812679878023	0.3439842252512728	-0.29686012460042654	0.23673847493008132	0.26991906984428377	-0.3147982010593815
98	1.8148148148148149	0.29713044670156086	0.4770513868391528	0.4745572599168888	0.24750883289493614	0.5498245571878341	0.9228047382577063	0.22740322127395715	0.5557364882219936	1.3052448569654982	0.26350943117492165	0.4268749013167294	1.329092149820705	0.3217830491991039	0.4589554736086915	1.322093851575076	0.17294920248179116	0.6615040312950105	1.3919841063739926	0.12800583647656838	0.4442059399947911	0.4778548730208201	0.05108438715790183	0.5231313989590141	0.9227018199443574	0.029697672655302806	0.5782202588163161	1.342596870093843	0.11662715994421498	0.36127813338509684	1.2963639464981107	0.057229090254636995	0.40305796686552586	1.3147041434425257	0.034942630374649675	0.6058183988775896	1.385718626786185	0.2168874584635776	0.5389660226851257	-0.041379471563536926	0.2360220778629767	0.5035094913161641	-0.259250800698473	0.24719923601007515	0.4643404199430129	-0.15342589162788514	0.330866736817874	0.5364254262516739	0.023534463192809676	0.4772927141341027	0.4238435617598885	-0.06346860029416947	0.3740031264994398	0.36085558132462586	-0.20378795829442875	0.30297223745438584	0.31634598788284657	-0.28234818404362566	0.29464763296620644	0.301694827495711	-0.3246050302760413	0.3121045147271561	0.30516148033354096	-0.32874831687851874	0.08071980949876675	0.5085988342407551	0.02208154723080582	0.06778493821754215	0.27773063001275444	-0.0989069675664206	0.16892245582356896	0.303090207377485	-0.246375454249463	0.2368142780530354	0.3212133368098002	-0.28644326013704735	0.2442412173948592	0.34415975454420467	-0.31864630357887813	0.2546405997407735	0.2718653757407776	-0.33894239237235346
99	1.8333333333333333	0.2959523885486809	0.4798130054603513	0.4770371802527932	0.24756513286705042	0.5505207755790836	0.9250655994661968	0.2273756472355013	0.5559051130768314	1.3053229206053583	0.263822118753049	0.421605161948235	1.3267929087386257	0.3217289276406585	0.45874688652302636	1.3220816551801284	0.1729330001363982	0.6615772867919293	1.3920692572381814	0.12770219805378283	0.44460971907944313	0.4792243172719857	0.05050397452590147	0.5268768407447081	0.9241148818333196	0.029699391774732044	0.5782254507555842	1.3425388248264656	0.11646586788332698	0.3610032458365198	1.29727235510807	0.057230579370186496	0.4030548400808228	1.3147136685982277	0.035004502808411796	0.6057620349454392	1.3859579636698847	0.21457287149712548	0.5394709996612792	-0.0393227043836806	0.23770863258801989	0.5026738429982945	-0.26002440027776896	0.2471833054701038	0.4688529457515166	-0.15566618910435442	0.3308550813900982	0.5369910315351984	0.021885373411147407	0.4647072881509168	0.42687474676249704	-0.08371919562880038	0.3544938267855854	0.37144412576897445	-0.2292187920196626	0.2851800278393361	0.3270199283340251	-0.3056573928660487	0.27235160016655935	0.3197207615054567	-0.3490410117248013	0.3064389579136132	0.31965756919903904	-0.35616459761587577	0.0805314272357451	0.5091979973284819	0.022813589774494648	0.0707698588953938	0.2831678725369729	-0.1211933823428819	0.18069602987891661	0.3119575924298503	-0.26705766171389717	0.23585532532368902	0.33786827950264187	-0.30828970652988524	0.2476333969400667	0.3425183103844947	-0.3418909258555829	0.26086165013588336	0.2847055279209145	-0.3603597940625913
100	1.851851851851852	0.29330806618220306	0.48785166368227356	0.4809707169315976	0.24760992757579459	0.5510042501664223	0.9272810797549689	0.22735687030460758	0.5560309655662729	1.3054012202495515	0.2639253109107457	0.4179493182651254	1.3246385212812597	0.3217838010907632	0.45886928058273757	1.3216583042103471	0.17292753155122445	0.6616640839037231	1.392160240975439	0.12730897799463703	0.44477128683551176	0.4808552126146383	0.05032779112986153	0.5280342786215637	0.924440697112932	0.02969132838296029	0.5782249878047927	1.3426456985082822	0.11654722962856198	0.3611071286943571	1.297563494890539	0.05723006751641937	0.40305901073904427	1.314727983897848	0.03518144922645108	0.6055893671642509	1.3867161179182494	0.21128408515821184	0.539998277758768	-0.037395236519658204	0.23679990472952572	0.5060161222779505	-0.2602393713742065	0.24700539949828118	0.47184274670498805	-0.15640658439849736	0.33078661389597086	0.5377832703340233	0.02065717983500517	0.4531422166591787	0.42881341835606807	-0.1053300629345309	0.3411084839478322	0.37964821992665904	-0.2553106026211096	0.2674596885213138	0.33585404880519076	-0.3310198503088039	0.2550753617471951	0.3359881018314766	-0.37112850721929835	0.3058743125835559	0.3238708572811023	-0.3810416827492264	0.08035146621396529	0.5098741577805204	0.02288024495884408	0.07364548196853095	0.29110632074654036	-0.14005096186346744	0.19008010996510102	0.3292418742158075	-0.2869692793091405	0.2334378500754621	0.34942397878152465	-0.3311367473446656	0.24654590402750834	0.34238212217973985	-0.3597454443988202	0.25912651842766105	0.30579977084762366	-0.3797621137796119
101	1.8703703703703705	0.29152154974417627	0.49722734112807604	0.48409902374891944	0.24762603944659434	0.5511684844247848	0.9282723318025474	0.2273573103696247	0.5560776670449371	1.3054441856722376	0.263785679512029	0.4180783712988689	1.3244673874601585	0.3220810055710865	0.45909907251044446	1.3203886972782277	0.17292824332370588	0.6617429655968443	1.3922463671321452	0.1269962214152442	0.4447944678956017	0.48282320255761857	0.05035149041936995	0.5278322549442076	0.9243578608078745	0.029646381646879466	0.5782300918276242	1.342842060607766	0.11665222559232521	0.361195768955511	1.297516911983862	0.05722750077803366	0.40305115062488095	1.3147853333673631	0.03537118463932397	0.6054217992142841	1.387690881535165	0.20870968825010716	0.5399088933134084	-0.03662502494495299	0.2352404038031003	0.5083796240349894	-0.26011280899999817	0.24686765217769485	0.472912396437257	-0.15585752261695007	0.3306781792335236	0.5385188898764738	0.019850652952509908	0.44552737263419273	0.43016265864820424	-0.12735911075316128	0.3369997196784804	0.38365465579816355	-0.2815688790817005	0.2567601413400021	0.34036083174155124	-0.35125104058374285	0.24727440475656898	0.3450266302751424	-0.39201918159400606	0.3074804430451307	0.32088101502096134	-0.402064298599283	0.08031716901512427	0.5100937117403086	0.022048833042979235	0.07526350478692767	0.29981765965644186	-0.15326130096846766	0.1944601150409374	0.34801256788892304	-0.303803696500422	0.23169677471294517	0.3530507459648405	-0.34754077662703553	0.24600378289669406	0.34496958610145045	-0.36981649793367183	0.25572286968045277	0.32448790536802774	-0.39787864633939857
